{"title":"Ricky Martin Feat. Wisin &amp; Jennifer Lopez - Adrenalina.mp4","uid":10530591,"size":235205427,"categoryP":"video","categoryS":"music_videos","magnet":"?xt=urn:btih:8718dfce3c2fb878ac111fc5c11aafc58fbe6198&amp;dn=Ricky+Martin+Feat.+Wisin+%26amp%3B+Jennifer+Lopez+-+Adrenalina.mp4&amp;tr=udp%3A%2F%2Ftracker.openbittorrent.com%3A80&amp;tr=udp%3A%2F%2Fopen.demonii.com%3A1337&amp;tr=udp%3A%2F%2Ftracker.coppersurfer.tk%3A6969&amp;tr=udp%3A%2F%2Fexodus.desync.com%3A6969","seeders":1,"leechers":0,"uploader":"Lawry1494","files":-1,"time":1405105639,"description":"General\nComplete name                  : Ricky Martin Feat. Wisin &amp; Jennifer Lopez - Adrenalina.mp4\nFormat                         : MPEG-4\nFormat profile                 : Base Media\nCodec ID                       : isom\nFile size                      : 224 MiB\nDuration                       : 4mn 27s\nOverall bit rate mode          : Variable\nOverall bit rate               : 7 026 Kbps\n\nVideo\nID                             : 1\nFormat                         : AVC\nFormat/Info                    : Advanced Video Codec\nFormat profile                 : &lt;a class=&quot;__cf_email__&quot; href=&quot;/cdn-cgi/l/email-protection&quot; data-cfemail=&quot;6c24050b042c2058425d&quot;&gt;[email&amp;#160;protected]&lt;/a&gt;&lt;script cf-hash='f9e31' type=&quot;text/javascript&quot;&gt;\n/* &lt;![CDATA[ */!function(){try{var t=&quot;currentScript&quot;in document?document.currentScript:function(){for(var t=document.getElementsByTagName(&quot;script&quot;),e=t.length;e--;)if(t[e].getAttribute(&quot;cf-hash&quot;))return t[e]}();if(t&amp;&amp;t.previousSibling){var e,r,n,i,c=t.previousSibling,a=c.getAttribute(&quot;data-cfemail&quot;);if(a){for(e=&quot;&quot;,r=parseInt(a.substr(0,2),16),n=2;a.length-n;n+=2)i=parseInt(a.substr(n,2),16)^r,e+=String.fromCharCode(i);e=document.createTextNode(e),c.parentNode.replaceChild(e,c)}}}catch(u){}}();/* ]]&gt; */&lt;/script&gt;\nFormat settings, CABAC         : Yes\nFormat settings, ReFrames      : 8 frames\nCodec ID                       : avc1\nCodec ID/Info                  : Advanced Video Coding\nDuration                       : 4mn 27s\nBit rate                       : 5 962 Kbps\nMaximum bit rate               : 12.9 Mbps\nWidth                          : 1 280 pixels\nHeight                         : 672 pixels\nDisplay aspect ratio           : 1.905\nFrame rate mode                : Constant\nFrame rate                     : 23.976 fps\nColor space                    : YUV\nChroma subsampling             : 4:2:0\nBit depth                      : 8 bits\nScan type                      : Progressive\nBits/(Pixel*Frame)             : 0.289\nStream size                    : 190 MiB (85%)\nWriting library                : x264 core 142 r2431 ac76440\n\nAudio\nID                             : 2\nFormat                         : ALAC\nCodec ID                       : alac\nCodec ID/Info                  : Apple Lossless Audio Codec\nDuration                       : 4mn 27s\nBit rate mode                  : Variable\nBit rate                       : 1 061 Kbps\nChannel(s)                     : 2 channels\nSampling rate                  : 44.1 KHz\nBit depth                      : 16 bits\nStream size                    : 33.9 MiB (15%)\n\nSource: Ricky Martin feat. Wisin &amp; Jennifer Lopez - Adrenalina [Master ProRes 1080p].mov \n\nThumbs: http://bayimg.com/LAPGmAafD\n\nScreen 1: http://bayimg.com/LAPgNAafd\n\nScreen 2: http://bayimg.com/LaPgoAAFD\n\nScreen 3: http://bayimg.com/LApGPAafd\n\nScreen 4: http://bayimg.com/MApgbaAFD\n\nSpectrogram for Audio: http://bayimg.com/mAPgcaaFd","torrent":{"xt":"urn:btih:8718dfce3c2fb878ac111fc5c11aafc58fbe6198","amp;dn":"Ricky+Martin+Feat.+Wisin+%26amp%3B+Jennifer+Lopez+-+Adrenalina.mp4","amp;tr":["udp%3A%2F%2Ftracker.openbittorrent.com%3A80","udp%3A%2F%2Fopen.demonii.com%3A1337","udp%3A%2F%2Ftracker.coppersurfer.tk%3A6969","udp%3A%2F%2Fexodus.desync.com%3A6969"],"infoHash":"8718dfce3c2fb878ac111fc5c11aafc58fbe6198","infoHashBuffer":{"type":"Buffer","data":[135,24,223,206,60,47,184,120,172,17,31,197,193,26,175,197,143,190,97,152]},"announce":[],"urlList":[]}}